<?xml version="1.0" standalone="no"?>
<!DOCTYPE svg PUBLIC "-//W3C//DTD SVG 20010904//EN"
 "http://www.w3.org/TR/2001/REC-SVG-20010904/DTD/svg10.dtd">
<svg version="1.0" xmlns="http://www.w3.org/2000/svg"
 width="700.000000pt" height="700.000000pt" viewBox="0 0 700.000000 700.000000"
 preserveAspectRatio="xMidYMid meet">
<metadata>
Created by potrace 1.14, written by Peter Selinger 2001-2017
</metadata>
<g transform="translate(0.000000,700.000000) scale(0.100000,-0.100000)"
fill="#000000" stroke="none">
<path d="M6925 6584 c-27 -8 -59 -16 -70 -19 -11 -2 -29 -6 -40 -9 -11 -2 -72
-16 -135 -31 -63 -14 -158 -37 -210 -50 -52 -13 -109 -26 -127 -30 -18 -3 -42
-9 -55 -14 -13 -5 -26 -9 -31 -9 -43 -5 -125 -28 -121 -34 3 -4 52 -35 109
-69 58 -33 107 -65 110 -70 3 -4 -715 -729 -1595 -1610 -1545 -1546 -1602
-1601 -1618 -1583 -40 43 -154 229 -198 324 -118 249 -174 511 -169 785 3 128
9 187 30 315 9 50 63 233 86 294 32 79 111 241 120 244 5 2 9 8 9 13 0 5 17
35 38 67 220 336 554 593 935 717 185 60 322 80 547 80 206 0 279 -9 440 -51
184 -49 343 -117 498 -216 15 -9 33 -17 40 -17 7 -1 73 60 148 134 114 116
132 138 121 150 -50 49 -329 200 -467 252 -30 12 -64 25 -75 29 -11 4 -22 8
-25 9 -92 29 -126 39 -133 37 -4 -1 -16 2 -25 7 -10 5 -38 12 -62 16 -25 4
-47 8 -51 11 -4 2 -31 6 -60 9 -30 4 -61 9 -69 11 -23 8 -195 18 -300 17 -127
0 -235 -9 -340 -28 -14 -2 -41 -7 -60 -10 -63 -11 -186 -44 -261 -70 -41 -15
-78 -28 -84 -29 -72 -22 -269 -119 -376 -186 -75 -47 -199 -137 -267 -194 -55
-46 -200 -195 -250 -256 -29 -36 -60 -74 -69 -84 -36 -44 -133 -197 -176 -276
-43 -80 -116 -240 -122 -264 -2 -12 -11 -38 -26 -74 -13 -34 -66 -242 -74
-293 -27 -165 -30 -211 -29 -399 1 -239 6 -295 50 -480 24 -103 47 -186 64
-225 4 -11 13 -36 20 -55 31 -89 134 -298 179 -363 17 -25 31 -48 31 -52 0 -3
4 -11 10 -18 37 -45 90 -118 90 -123 0 -4 10 -16 23 -28 12 -11 33 -34 45 -51
45 -58 216 -229 249 -248 7 -5 672 654 1752 1733 958 958 1745 1739 1750 1736
12 -8 91 -142 91 -155 0 -6 4 -11 9 -11 5 0 14 -13 21 -30 7 -16 16 -30 20
-30 7 0 25 74 20 82 -1 2 4 17 10 33 7 17 14 41 16 55 4 22 8 39 20 95 6 30
65 272 69 285 1 3 7 32 15 65 7 33 15 65 16 70 1 6 10 42 19 80 9 39 18 78 21
88 6 20 -1 20 -71 1z"/>
<path d="M6151 5249 l-141 -141 34 -56 c48 -81 106 -192 99 -192 -3 0 2 -11
11 -24 21 -33 69 -173 94 -277 40 -163 47 -224 47 -414 0 -231 -19 -359 -85
-565 -30 -93 -105 -256 -168 -364 -94 -160 -301 -385 -467 -509 -49 -37 -95
-71 -102 -77 -7 -5 -17 -10 -23 -10 -5 0 -10 -4 -10 -10 0 -5 -5 -10 -11 -10
-6 0 -23 -8 -37 -19 -106 -75 -392 -207 -599 -276 -119 -40 -324 -99 -388
-111 -11 -2 -42 -8 -70 -14 -27 -5 -65 -12 -84 -15 -19 -3 -37 -7 -40 -9 -3
-2 -33 -7 -66 -10 -33 -4 -86 -11 -119 -16 -32 -5 -61 -9 -65 -8 -3 0 -8 0
-11 -1 -3 -1 -34 -4 -69 -6 -35 -3 -66 -7 -68 -9 -3 -3 139 -40 197 -51 14 -3
36 -8 50 -11 14 -4 39 -8 55 -10 17 -2 53 -8 80 -14 28 -5 82 -13 120 -17 86
-9 443 -9 505 0 25 4 63 9 84 12 60 8 99 15 106 20 4 2 22 7 41 10 19 3 50 10
69 15 19 5 37 9 40 9 3 0 41 13 85 29 185 67 318 133 465 230 303 199 599 530
759 849 54 108 132 308 147 378 1 6 7 30 14 55 7 25 14 56 16 70 2 14 7 36 10
50 3 14 8 39 9 55 2 17 6 44 10 60 9 45 18 198 18 305 0 191 -21 342 -78 570
-2 8 -4 15 -5 15 -1 0 -3 7 -5 15 -4 20 -40 127 -56 165 -7 17 -13 35 -14 40
-7 28 -141 292 -156 305 -3 3 -16 23 -29 45 -13 22 -31 50 -41 62 l-17 23
-141 -141z"/>
<path d="M4830 5333 c-13 -3 -76 -86 -89 -117 -2 -6 -8 -15 -13 -21 -10 -10
-109 -155 -238 -345 -41 -62 -124 -184 -185 -272 l-110 -161 -145 -99 c-80
-54 -188 -128 -240 -164 -52 -35 -180 -123 -284 -194 -104 -71 -194 -136 -199
-146 -7 -12 -4 -22 12 -37 l20 -21 173 118 c95 65 220 150 278 190 207 143
366 251 403 275 25 17 70 71 130 161 50 74 131 194 180 265 269 395 352 520
353 531 3 17 -28 41 -46 37z"/>
<path d="M4270 5272 c-26 -3 -45 -14 -73 -45 -145 -159 -182 -399 -98 -639 26
-75 44 -106 36 -61 -10 52 -7 193 5 253 6 30 12 60 14 65 18 89 131 303 206
390 38 45 30 48 -90 37z"/>
<path d="M4709 5276 c-2 -3 -30 -7 -62 -10 -144 -15 -344 -178 -421 -345 -57
-121 -79 -288 -58 -429 4 -29 22 -47 22 -22 0 6 7 27 17 48 9 20 17 39 18 42
12 46 182 318 237 382 13 14 32 39 43 54 45 61 83 106 187 218 25 28 44 54 42
58 -6 9 -18 10 -25 4z"/>
<path d="M3867 4991 l-109 -37 -58 -79 c-32 -44 -63 -85 -67 -90 -39 -49 -38
-46 -7 -41 16 3 47 12 69 19 39 14 40 14 66 -17 l27 -31 44 22 c43 22 128 96
128 113 0 4 -7 13 -16 21 -20 16 -47 69 -36 69 10 0 76 80 70 85 -2 2 -52 -13
-111 -34z"/>
<path d="M3666 4619 c-15 -4 -41 -9 -59 -12 -80 -11 -167 -47 -167 -70 0 -5
-10 -24 -23 -41 -13 -17 -26 -39 -30 -49 -6 -16 -4 -16 21 -3 51 26 185 68
261 81 131 24 323 10 436 -31 34 -12 -35 43 -88 71 -91 48 -270 75 -351 54z"/>
<path d="M3905 4455 c-100 -15 -142 -28 -230 -74 -89 -46 -207 -161 -264 -257
-45 -77 -48 -87 -57 -184 l-6 -65 43 40 c24 22 46 42 49 45 35 33 112 100 139
120 18 14 40 32 49 41 87 81 357 248 485 299 32 12 55 25 52 28 -5 5 -44 10
-130 15 -27 2 -86 -2 -130 -8z"/>
<path d="M5134 4203 c-9 -15 2 -31 70 -99 67 -67 81 -87 82 -115 1 -36 33 -69
66 -69 31 0 68 44 62 75 -7 38 -28 56 -66 57 -27 1 -48 16 -117 85 -46 45 -85
83 -85 83 -1 0 -6 -8 -12 -17z m241 -178 c20 -19 24 -43 9 -64 -20 -28 -55
-22 -74 13 -14 25 -14 28 10 46 26 20 38 21 55 5z"/>
<path d="M5004 4079 c-4 -7 41 -59 112 -128 l119 -117 115 2 c112 2 116 1 136
-23 46 -55 134 -27 134 43 0 74 -82 104 -133 48 -22 -24 -29 -25 -131 -26
l-108 -1 -106 107 c-106 104 -124 117 -138 95z m572 -177 c6 -4 14 -16 18 -28
20 -65 -62 -94 -94 -33 -22 41 36 88 76 61z"/>
<path d="M4893 3965 c-7 -12 29 -53 152 -175 l160 -160 178 1 179 0 88 -87
c82 -82 87 -89 80 -118 -9 -41 1 -68 36 -95 91 -72 204 60 119 139 -25 24 -82
34 -101 19 -8 -7 -43 22 -108 87 l-96 97 -180 1 -181 1 -147 146 c-81 80 -152
148 -159 152 -6 4 -16 1 -20 -8z m972 -521 c30 -33 31 -44 4 -78 -26 -33 -68
-35 -95 -3 -11 12 -19 28 -18 35 1 6 2 17 3 22 2 19 41 50 61 50 12 0 32 -12
45 -26z"/>
<path d="M4787 3858 c-15 -12 6 -37 207 -236 l223 -224 -4 -42 c-4 -35 -1 -47
22 -74 38 -45 90 -45 134 0 30 31 33 50 16 108 -9 28 -60 51 -101 44 l-37 -6
-221 221 c-196 196 -224 220 -239 209z m553 -466 c47 -38 21 -112 -40 -112
-36 0 -71 40 -63 73 14 53 62 72 103 39z"/>
<path d="M4677 3753 c-4 -3 -7 -10 -7 -14 0 -5 68 -76 151 -160 l151 -151 1
-181 2 -182 93 -92 c92 -92 92 -93 86 -132 -13 -78 63 -134 134 -97 42 22 62
79 41 119 -23 42 -41 52 -94 52 -50 0 -51 0 -136 86 l-85 86 0 180 0 180 -157
157 c-87 86 -161 156 -165 156 -5 0 -12 -3 -15 -7z m598 -869 c21 -9 37 -49
29 -78 -5 -23 -41 -46 -69 -46 -8 0 -24 9 -35 20 -51 51 6 130 75 104z"/>
<path d="M4560 3635 c-11 -13 2 -30 96 -125 l109 -110 2 -108 c1 -103 1 -108
-24 -128 -28 -24 -38 -80 -20 -105 18 -24 52 -39 78 -34 62 12 83 91 35 132
-25 21 -26 26 -26 140 l0 118 -118 118 c-104 104 -120 116 -132 102z m272
-510 c17 -38 -3 -75 -42 -75 -50 0 -75 65 -36 92 25 17 66 8 78 -17z"/>
<path d="M4440 3514 c-12 -13 -2 -27 71 -100 71 -72 83 -89 81 -113 -2 -20 4
-36 19 -50 54 -50 131 1 107 72 -10 26 -36 40 -80 41 -9 1 -55 38 -101 84 -74
72 -86 80 -97 66z m257 -202 c7 -30 -7 -56 -33 -60 -26 -3 -44 10 -49 38 -11
55 68 76 82 22z"/>
<path d="M6626 3143 c-10 -21 -23 -47 -29 -58 -6 -11 -21 -39 -34 -63 -28 -52
-162 -265 -172 -272 -3 -3 -31 -36 -60 -75 -59 -77 -267 -288 -346 -350 -74
-60 -207 -155 -216 -155 -4 0 -14 -6 -21 -13 -17 -17 -137 -85 -215 -122 -35
-17 -63 -32 -63 -35 0 -3 73 -5 163 -5 129 0 168 3 184 15 18 13 114 92 441
365 l36 30 -20 -30 c-10 -16 -25 -36 -32 -45 -32 -35 -242 -321 -242 -328 0
-4 74 -7 164 -7 133 0 168 3 183 16 10 8 62 52 115 97 90 76 124 100 98 70
-20 -23 -130 -178 -127 -179 16 -7 200 -2 206 6 6 7 13 1175 7 1175 -1 0 -10
-17 -20 -37z"/>
<path d="M1853 2118 l2 -433 45 -1 c63 -1 66 1 63 46 l-2 40 31 -30 c54 -54
84 -65 183 -65 80 0 94 3 130 26 90 60 136 149 140 271 4 121 -22 206 -83 271
-96 102 -281 105 -372 5 l-27 -30 -1 154 c0 84 0 159 -1 166 -1 8 -19 12 -55
12 l-55 0 2 -432z m353 108 c58 -13 111 -87 121 -166 2 -19 5 -44 7 -56 5 -28
-13 -123 -30 -156 -67 -129 -251 -124 -314 9 -15 32 -23 70 -25 122 -7 186 87
282 241 247z"/>
<path d="M44 2500 c3 -8 7 -25 11 -37 3 -12 8 -30 10 -40 2 -10 36 -137 75
-283 39 -146 73 -272 76 -280 2 -8 8 -33 14 -55 6 -22 13 -51 16 -64 11 -53
18 -57 95 -57 l73 1 12 45 c25 91 56 205 59 220 2 8 8 35 15 60 7 25 14 52 16
60 2 8 19 76 39 150 20 74 37 140 38 147 4 16 17 29 18 17 1 -15 33 -141 155
-601 13 -51 24 -94 24 -96 0 -2 34 -3 76 -3 l77 2 39 144 c21 80 61 231 89
335 28 105 60 223 72 263 11 40 17 75 14 79 -4 3 -30 7 -58 8 -43 0 -53 -3
-60 -20 -5 -11 -45 -159 -89 -330 -45 -170 -84 -319 -87 -330 -5 -14 -11 -2
-23 45 -10 36 -29 110 -44 165 -15 55 -29 107 -31 115 -2 8 -18 67 -34 130
-17 63 -36 135 -43 160 -6 25 -14 50 -19 55 -4 6 -35 10 -69 10 l-62 0 -13
-38 c-7 -21 -13 -41 -14 -45 -1 -4 -6 -25 -12 -47 -6 -22 -12 -47 -14 -55 -2
-8 -13 -51 -24 -95 -24 -89 -22 -79 -51 -195 -12 -47 -25 -92 -28 -100 -3 -8
-6 -17 -7 -20 -1 -3 -5 -24 -10 -47 -4 -24 -10 -43 -14 -43 -4 0 -19 48 -35
108 -15 59 -30 114 -33 122 -3 8 -7 22 -9 31 -4 17 -15 61 -70 264 -20 72 -36
136 -36 143 -2 14 1 14 -71 16 -47 2 -56 -1 -53 -14z"/>
<path d="M2636 2510 c-1 -3 -2 -189 -2 -415 l1 -410 265 -1 c146 0 270 1 277
4 7 2 12 22 11 48 l-1 44 -216 2 -216 3 0 363 c0 199 -2 362 -5 363 -24 4
-112 3 -114 -1z"/>
<path d="M1319 2315 c-37 -6 -75 -17 -84 -25 -10 -8 -19 -13 -21 -10 -1 3 -16
-5 -33 -18 -156 -115 -164 -399 -16 -516 75 -59 110 -70 230 -72 84 -2 127 3
183 18 l72 20 0 49 c0 27 -1 49 -2 49 -2 0 -26 -9 -55 -20 -70 -26 -106 -33
-183 -33 -129 0 -212 64 -233 180 l-6 33 252 2 252 3 -2 67 c-2 89 -32 156
-94 212 -26 24 -62 46 -79 49 -16 4 -33 7 -38 9 -42 11 -88 12 -143 3z m158
-102 c15 -10 35 -25 43 -33 20 -20 44 -78 44 -105 0 -19 -7 -20 -193 -23
l-193 -3 7 38 c7 42 43 95 79 119 52 33 166 37 213 7z"/>
<path d="M4359 1525 c-1 -32 -1 -93 0 -102 1 -5 26 -6 56 -5 l55 4 0 64 0 64
-55 0 c-52 0 -55 -1 -56 -25z"/>
<path d="M153 1512 c-18 -2 -33 -9 -33 -15 -1 -18 -1 -737 0 -778 l0 -37 54 2
c30 0 57 4 61 8 6 5 10 139 5 163 -1 6 -1 14 0 20 2 13 2 177 0 190 -1 6 -1
15 0 20 1 6 1 39 0 75 -1 36 -1 70 -1 75 2 46 2 92 1 100 -2 11 -1 65 1 128 1
21 -1 40 -4 43 -7 7 -45 10 -84 6z"/>
<path d="M3887 1478 c-7 -4 -11 -35 -10 -87 1 -56 -2 -81 -10 -82 -7 -1 -21
-2 -32 -3 -33 -2 -44 -15 -39 -43 7 -35 9 -37 47 -38 l32 0 1 -170 c1 -93 4
-196 8 -228 14 -108 75 -144 241 -143 l90 1 0 40 0 40 -98 5 c-132 7 -126 -4
-127 225 -1 83 -1 168 -1 191 l1 41 110 -2 c84 -1 110 2 111 12 1 7 2 25 3 41
l1 27 -110 1 -110 0 -3 87 c-1 48 -6 87 -10 88 -36 5 -85 3 -95 -3z"/>
<path d="M6419 1326 c-2 -2 -26 -7 -53 -10 -157 -21 -233 -132 -176 -258 20
-43 105 -87 205 -104 134 -23 182 -61 163 -130 -12 -45 -64 -68 -153 -67 -86
0 -116 5 -182 32 -57 22 -55 24 -55 -34 0 -14 0 -31 1 -39 2 -31 217 -59 320
-41 124 21 197 99 186 200 -2 17 -4 31 -5 33 -1 1 -3 6 -4 11 -3 22 -55 69
-96 87 -25 11 -83 29 -130 38 -85 18 -139 39 -152 60 -16 24 -8 73 16 95 50
47 219 45 331 -5 8 -3 11 43 6 86 -2 12 -71 30 -137 36 -38 3 -72 8 -75 10 -3
2 -8 2 -10 0z"/>
<path d="M690 1299 c-25 -11 -60 -34 -77 -51 l-33 -31 2 35 c2 49 -6 56 -59
55 l-48 -2 -3 -311 -2 -311 55 -1 55 0 0 194 c0 227 -2 200 16 244 31 72 90
110 173 110 60 0 93 -16 122 -59 23 -33 24 -42 26 -235 1 -111 2 -213 3 -227
0 -25 2 -26 53 -25 l52 1 3 199 c1 110 -2 224 -8 255 -13 70 -53 130 -105 156
-58 28 -166 30 -225 4z"/>
<path d="M1489 1311 c-40 -13 -70 -31 -100 -62 -16 -16 -30 -29 -32 -29 -2 0
-3 15 -2 33 2 50 -2 54 -53 52 -26 -1 -49 -3 -52 -4 -5 -1 -6 -590 -1 -613 0
-4 24 -7 53 -5 l52 3 2 199 c2 203 3 211 22 255 22 52 93 90 167 90 53 0 80
-12 112 -48 32 -35 36 -69 36 -297 l1 -202 50 0 c28 0 54 4 57 9 3 5 4 34 2
65 l-3 56 22 -29 c79 -102 210 -141 347 -104 141 38 212 154 206 337 -2 92
-31 168 -84 221 -32 32 -111 79 -111 66 0 -4 -6 -2 -12 4 -7 5 -53 9 -103 8
-73 -1 -98 -5 -135 -24 -54 -29 -96 -67 -117 -106 l-15 -30 -19 39 c-24 48
-55 82 -94 103 -33 17 -155 25 -196 13z m652 -91 c78 -32 122 -115 120 -228
-3 -150 -77 -242 -191 -237 -81 4 -135 40 -166 113 -23 53 -24 184 -1 244 20
52 73 105 115 114 15 3 31 7 35 8 20 4 57 -1 88 -14z"/>
<path d="M3265 1313 c-11 -2 -44 -11 -72 -19 l-53 -15 0 -51 c0 -39 3 -48 13
-41 27 21 130 45 196 45 122 1 202 -60 192 -147 -1 -6 -38 -10 -93 -9 -114 1
-199 -11 -247 -35 -80 -41 -106 -86 -106 -180 1 -85 25 -127 98 -167 38 -20
60 -25 132 -26 73 0 138 24 182 68 33 33 40 29 38 -22 -1 -31 -1 -31 52 -31
30 0 53 4 55 11 9 28 0 415 -10 452 -18 62 -63 118 -118 144 -39 18 -69 23
-144 25 -52 2 -104 1 -115 -2z m278 -323 c13 -13 -15 -119 -40 -155 -55 -78
-173 -106 -252 -59 -33 20 -40 31 -47 86 -10 66 24 103 115 125 35 9 216 11
224 3z"/>
<path d="M4837 1303 c-61 -21 -130 -85 -158 -148 -27 -60 -37 -193 -20 -262
26 -105 95 -181 193 -212 37 -12 145 -17 184 -8 133 31 211 133 221 288 5 76
-9 171 -30 197 -5 6 -6 12 -3 12 20 0 -71 91 -115 115 -43 23 -66 28 -138 31
-61 2 -100 -1 -134 -13z m188 -83 c90 -34 140 -173 110 -307 -21 -92 -78 -149
-156 -157 -119 -13 -206 74 -213 212 -10 193 109 309 259 252z"/>
<path d="M5652 1297 c-23 -12 -56 -35 -72 -50 l-30 -29 -1 24 c-3 65 -1 63
-52 64 -26 0 -50 -4 -54 -9 -10 -17 -9 -598 2 -606 6 -4 30 -7 55 -7 l45 1 3
204 c2 186 4 208 24 248 25 50 53 71 117 88 81 20 156 -10 184 -75 6 -14 11
-117 12 -245 l2 -220 54 0 54 0 0 217 c1 244 -8 294 -58 350 -41 45 -96 65
-177 66 -48 0 -77 -5 -108 -21z"/>
<path d="M2470 1296 c0 -5 55 -146 121 -312 l121 -302 75 2 75 1 79 195 c43
107 79 196 80 198 1 1 2 5 3 10 1 4 10 24 19 46 9 21 17 42 17 46 0 4 7 21 16
38 8 18 19 45 24 61 l8 29 -55 -2 c-53 -1 -55 -2 -74 -40 -10 -22 -19 -43 -19
-48 0 -4 -9 -27 -19 -51 -11 -23 -47 -114 -82 -202 -34 -88 -65 -164 -69 -168
-4 -4 -33 59 -64 140 -32 81 -63 162 -71 178 -31 70 -65 159 -65 172 0 15 -5
16 -72 17 -27 1 -48 -3 -48 -8z"/>
<path d="M4359 1281 c-1 -28 -1 -515 0 -567 1 -30 1 -31 55 -31 l55 0 0 312 0
311 -54 0 c-52 0 -55 -1 -56 -25z"/>
</g>
</svg>
