<svg xmlns="http://www.w3.org/2000/svg" width="48" height="48" fill="none" viewBox="0 0 48 48"><path fill="#3CBB95" d="M44.223 12.936L29.223 4.68599C29.0015 4.56414 28.7528 4.50024 28.5 4.50024C28.2472 4.50024 27.9985 4.56414 27.777 4.68599L12.777 12.936C12.5418 13.0655 12.3457 13.2557 12.2091 13.4868C12.0725 13.718 12.0005 13.9815 12.0005 14.25C12.0005 14.5185 12.0725 14.782 12.2091 15.0131C12.3457 15.2443 12.5418 15.4345 12.777 15.564L27 23.3865V39.465L22.446 36.96L21 39.5865L27.777 43.314C27.9984 43.4361 28.2472 43.5002 28.5 43.5002C28.7529 43.5002 29.0016 43.4361 29.223 43.314L44.223 35.064C44.4583 34.9346 44.6545 34.7444 44.7912 34.5132C44.9278 34.2821 45 34.0185 45 33.75V14.25C45 13.9815 44.9278 13.7179 44.7912 13.4868C44.6545 13.2556 44.4583 13.0654 44.223 12.936ZM28.5 7.71299L40.3875 14.25L28.5 20.787L16.6125 14.25L28.5 7.71299ZM42 32.8635L30 39.4635V23.385L42 16.785V32.8635Z"/><path fill="#3CBB95" d="M15 24H3V21H15V24Z"/><path fill="#3CBB95" d="M18 36H6V33H18V36Z"/><path fill="#3CBB95" d="M21 30H9V27H21V30Z"/></svg>