<svg width="48" height="48" viewBox="0 0 48 48" fill="none" xmlns="http://www.w3.org/2000/svg">
<path d="M46.4934 42.9465L40.0001 36.4932V11.6665L36.9334 6.0265C36.7072 5.5965 36.3678 5.23648 35.9519 4.98532C35.536 4.73416 35.0593 4.60141 34.5734 4.60141C34.0876 4.60141 33.6109 4.73416 33.195 4.98532C32.7791 5.23648 32.4397 5.5965 32.2134 6.0265L29.3334 11.6798V25.8798L4.94677 1.61317C4.76028 1.42513 4.52201 1.29689 4.26235 1.2448C4.00268 1.19271 3.73339 1.21912 3.4888 1.32068C3.2442 1.42223 3.0354 1.59433 2.88899 1.81502C2.74259 2.03571 2.66523 2.295 2.66677 2.55984V13.3332H5.5601V15.4665H2.66677V23.9998H5.5601V26.1332H2.66677V34.9998H5.5601V37.1332H2.66677V43.8932C2.66677 44.2468 2.80725 44.5859 3.05729 44.836C3.30734 45.086 3.64648 45.2265 4.0001 45.2265H45.5468C45.8116 45.228 46.0709 45.1507 46.2916 45.0043C46.5123 44.8579 46.6844 44.6491 46.7859 44.4045C46.8875 44.1599 46.9139 43.8906 46.8618 43.6309C46.8097 43.3713 46.6815 43.133 46.4934 42.9465ZM13.3334 34.6665V22.5865L25.4268 34.6665H13.3334ZM37.3334 37.4798H32.0001V34.2398H37.3334V37.4798ZM37.3334 32.1465H32.0001V12.3332L34.5868 7.3065L37.3334 12.3465V32.1465Z" fill="#3CBB95"/>
</svg>
