<svg xmlns="http://www.w3.org/2000/svg" width="48" height="48" fill="none" viewBox="0 0 48 48"><path fill="#3CBB95" d="M13.7341 6.28198L13.3126 7.03198L3.93761 23.391L3.51611 24.141L3.93761 24.891L13.3126 41.25L13.7341 42H34.2661L34.6876 41.25L44.0626 24.891L44.4841 24.141L44.0626 23.391L34.6876 7.03198L34.2661 6.28198H13.7341ZM17.3911 9.28198H26.5786L19.7341 11.7195L17.3911 9.28198ZM31.0786 9.28198L24.1876 16.3125L20.9056 12.891L31.0786 9.28198ZM15.4201 9.41998L18.2326 12.2805L15.3736 13.311V9.51598L15.4201 9.41998ZM32.7166 9.70198L36.6571 16.5L30.6121 22.9215L25.2676 17.391L32.7166 9.70198ZM13.8751 12.141V13.8285L12.6556 14.25L13.8751 12.141ZM19.3591 13.4535L23.1556 17.391L17.5786 23.0625L15.3751 20.718V14.907L19.3591 13.4535ZM13.8751 15.42V19.1235L11.3911 16.452L11.4841 16.2645L13.8751 15.42ZM10.5931 17.811L13.8751 21.327V26.9055L10.5466 30.3255L6.98411 24.1395L10.5931 17.811ZM37.3126 18L35.2501 27.7035L31.6411 24L37.3126 18ZM24.1876 18.4695L29.5786 24L24.0001 29.907L18.6091 24.1875L24.1876 18.4695ZM38.4841 19.734L41.0161 24.141L37.5931 30.093L36.5626 29.016L38.4841 19.734ZM15.3751 22.9215L16.5466 24.141L15.3751 25.359V22.9215ZM30.6091 25.0785L34.9216 29.484L34.4071 31.875H25.8271L25.0321 31.0305L30.6091 25.0785ZM17.5786 25.266L22.9696 31.0305L22.1251 31.875H15.3751V27.468L17.5786 25.266ZM13.8751 29.016V31.875H11.4376L11.2966 31.6875L13.8751 29.016ZM36.1876 30.7965L36.7966 31.4535L36.5626 31.875H35.9536L36.1876 30.7965ZM12.2806 33.375H13.8751V36.141L12.2806 33.375ZM15.3751 33.375H20.7196L15.4696 38.9535L15.3751 38.766V33.375ZM22.7821 33.375H25.1716L30.4216 39H17.4841L22.7821 33.375ZM27.2341 33.375H34.0786L33.1411 37.875L32.4841 39L27.2341 33.375ZM35.6251 33.375H35.7196L35.5786 33.609L35.6251 33.375Z"/></svg>