<svg width="48" height="48" viewBox="0 0 48 48" fill="none" xmlns="http://www.w3.org/2000/svg">
<g clip-path="url(#clip0_163:2)">
<path d="M23.8264 -0.0571449C23.7483 -0.0430463 23.6712 -0.0239297 23.5956 8.58456e-05C23.1788 0.0935044 22.8073 0.32856 22.5444 0.665198C22.2815 1.00184 22.1434 1.41922 22.1538 1.84624V3.8087C12.4375 4.68932 4.68917 12.4376 3.80671 22.1539H1.8461C1.78828 22.1512 1.73037 22.1512 1.67256 22.1539C1.18293 22.1769 0.722492 22.3935 0.392544 22.756C0.062595 23.1185 -0.10984 23.5972 -0.0868272 24.0869C-0.0638146 24.5765 0.15276 25.0369 0.515254 25.3669C0.877747 25.6968 1.35647 25.8692 1.8461 25.8462H3.80856C4.68917 35.5625 12.4375 43.3109 22.1538 44.1933V46.1539C22.1538 46.6436 22.3483 47.1131 22.6945 47.4594C23.0407 47.8056 23.5103 48.0001 23.9999 48.0001C24.4896 48.0001 24.9591 47.8056 25.3054 47.4594C25.6516 47.1131 25.8461 46.6436 25.8461 46.1539V44.1915C35.5624 43.3109 43.3107 35.5625 44.1932 25.8462H46.1538C46.6434 25.8462 47.113 25.6517 47.4592 25.3055C47.8054 24.9593 47.9999 24.4897 47.9999 24.0001C47.9999 23.5105 47.8054 23.0409 47.4592 22.6947C47.113 22.3484 46.6434 22.1539 46.1538 22.1539H44.1913C43.3107 12.4376 35.5643 4.68932 25.8461 3.80685V1.84624C25.8554 1.58371 25.8086 1.32222 25.7088 1.07923C25.609 0.83624 25.4585 0.61735 25.2673 0.437185C25.0761 0.257019 24.8487 0.119727 24.6002 0.0344804C24.3517 -0.050766 24.0879 -0.0820035 23.8264 -0.0571449ZM22.1538 9.34532V11.077C22.1538 11.5666 22.3483 12.0362 22.6945 12.3824C23.0407 12.7287 23.5103 12.9232 23.9999 12.9232C24.4896 12.9232 24.9591 12.7287 25.3054 12.3824C25.6516 12.0362 25.8461 11.5666 25.8461 11.077V9.34532C29.1019 9.75073 32.1295 11.2306 34.4495 13.5506C36.7695 15.8706 38.2493 18.8981 38.6547 22.1539H36.923C36.8652 22.1512 36.8073 22.1512 36.7495 22.1539C36.2598 22.1769 35.7994 22.3935 35.4695 22.756C35.1395 23.1185 34.9671 23.5972 34.9901 24.0869C35.0131 24.5765 35.2297 25.0369 35.5922 25.3669C35.9547 25.6968 36.4334 25.8692 36.923 25.8462H38.6547C38.2493 29.1021 36.7695 32.1296 34.4495 34.4496C32.1295 36.7696 29.1019 38.2494 25.8461 38.6549V36.9232C25.8529 36.6426 25.7957 36.3642 25.6788 36.1091C25.5619 35.854 25.3884 35.6289 25.1714 35.4509C24.9544 35.2729 24.6997 35.1467 24.4267 35.0819C24.1537 35.0172 23.8694 35.0155 23.5956 35.077C23.1788 35.1704 22.8073 35.4055 22.5444 35.7421C22.2815 36.0788 22.1434 36.4961 22.1538 36.9232V38.6549C18.898 38.2494 15.8704 36.7696 13.5504 34.4496C11.2304 32.1296 9.75059 29.1021 9.34517 25.8462H11.0769C11.5665 25.8462 12.0361 25.6517 12.3823 25.3055C12.7285 24.9593 12.923 24.4897 12.923 24.0001C12.923 23.5105 12.7285 23.0409 12.3823 22.6947C12.0361 22.3484 11.5665 22.1539 11.0769 22.1539H9.34517C9.75059 18.8981 11.2304 15.8706 13.5504 13.5506C15.8704 11.2306 18.898 9.75073 22.1538 9.34532Z" fill="#3CBB95"/>
</g>
<defs>
<clipPath id="clip0_163:2">
<rect width="48" height="48" fill="white"/>
</clipPath>
</defs>
</svg>
