<svg xmlns="http://www.w3.org/2000/svg" viewBox="0 0 699.8 620.69"><title>brand-logo</title><text transform="translate(0 491.37) scale(1.07 1)" style="font-size:113.90097045898438px;fill:#006661;font-family:Righteous-Regular, Righteous;letter-spacing:-0.006835965411442244em">W<tspan x="92.6" y="0" style="letter-spacing:0.000007985940901217576em">ebL</tspan></text><text transform="translate(0 591.44) scale(1.07 1)" style="font-size:113.90097045898438px;fill:#3cbb95;font-family:Righteous-Regular, Righteous">Inn<tspan x="158.78" y="0" style="letter-spacing:-0.015133358007807305em">ov</tspan><tspan x="281.92" y="0" style="letter-spacing:-0.000007985940901217576em">ations</tspan></text><path d="M699.8,0,679.06,87.85,664.45,63.17,315.57,412a216.89,216.89,0,0,1-27.81-27.82l27.95-28L563.6,108.38l73-73L612,20.74Z" style="fill:#ffb300"/><path d="M287.76,384.2a214.87,214.87,0,0,1-49.91-138c0-119.13,96.58-215.71,215.72-215.71a214.72,214.72,0,0,1,126.6,41.05L551.93,99.78A176.39,176.39,0,0,0,315.71,356.24Z" style="fill:#ffa400"/><path d="M669.28,246.2a215,215,0,0,1-21.07,93.11h0v0l-.07.15q-1.15,2.4-2.36,4.77l-.15.27c-8.19,15.57-36.2,62.41-89.78,91.66l-1.74.93A216.21,216.21,0,0,1,533,446.82l-2.44.93c-39.06,14.7-88.89,19.32-151,1.15,0,0,155.23-4.9,221.39-105.85.4-.59.78-1.19,1.15-1.78s.77-1.19,1.14-1.8a176.52,176.52,0,0,0-2.44-190.34l28.28-28.29A214.75,214.75,0,0,1,669.28,246.2Z" style="fill:#ffa400"/><path d="M664.5,340.84V460.2H642.58l15.51-21.31L632.43,460.2H599l31.23-41.85-50.4,41.85H545.13A237.08,237.08,0,0,0,664.5,340.84Z" style="fill:#006661"/><line x1="478.56" y1="273.98" x2="523.7" y2="319.12" style="fill:none;stroke:#006661;stroke-miterlimit:10;stroke-width:4.16038615629196px"/><polyline points="489.4 263.13 520.85 294.58 556.78 294.58 576.16 313.96" style="fill:none;stroke:#006661;stroke-miterlimit:10;stroke-width:4.16038615629196px"/><polyline points="501.06 251.48 523.62 274.05 547.81 274.05" style="fill:none;stroke:#006661;stroke-miterlimit:10;stroke-width:4.16038615629196px"/><line x1="513.15" y1="239.39" x2="530.48" y2="256.72" style="fill:none;stroke:#006661;stroke-miterlimit:10;stroke-width:4.16038615629196px"/><circle cx="530.07" cy="325.49" r="8.02" style="fill:none;stroke:#ffa200;stroke-miterlimit:10;stroke-width:2.94183726293089px"/><circle cx="581.94" cy="319.53" r="8.02" style="fill:none;stroke:#53c99f;stroke-miterlimit:10;stroke-width:2.94183726293089px"/><circle cx="554.46" cy="274.03" r="6.49" style="fill:none;stroke:#ffa200;stroke-miterlimit:10;stroke-width:2.37864199452304px"/><circle cx="534.73" cy="260.98" r="5.67" style="fill:none;stroke:#53c99f;stroke-miterlimit:10;stroke-width:2.08019307737746px"/><polyline points="467.77 284.77 499.22 316.21 499.22 352.14 518.6 371.52" style="fill:none;stroke:#006661;stroke-miterlimit:10;stroke-width:4.16038615629196px"/><polyline points="456.12 296.42 478.69 318.98 478.69 343.17" style="fill:none;stroke:#006661;stroke-miterlimit:10;stroke-width:4.16038615629196px"/><line x1="444.03" y1="308.51" x2="461.36" y2="325.84" style="fill:none;stroke:#006661;stroke-miterlimit:10;stroke-width:4.16038615629196px"/><circle cx="524.17" cy="377.3" r="8.02" style="fill:none;stroke:#53c99f;stroke-miterlimit:10;stroke-width:2.94183726293089px"/><circle cx="478.67" cy="349.82" r="6.49" style="fill:none;stroke:#ffa200;stroke-miterlimit:10;stroke-width:2.37864199452304px"/><circle cx="465.62" cy="330.09" r="5.67" style="fill:none;stroke:#53c99f;stroke-miterlimit:10;stroke-width:2.08019307737746px"/><path d="M425.05,223.12a3.69,3.69,0,0,1-.53.43l-86.45,59.2a3.71,3.71,0,0,1-4.2-6.12l85.88-58.8,60.95-89.62a3.71,3.71,0,1,1,6.13,4.17l-61.33,90.2A3.79,3.79,0,0,1,425.05,223.12Z" style="fill:#006661"/><path d="M417.68,215.46S402.41,160.39,458.41,134l16.66-1.85S431.11,175.2,417.68,215.46Z" style="fill:#b8e8ce"/><path d="M417.74,215.41s-55.07-15.28-81.45,40.72l-1.85,16.66S377.48,228.83,417.74,215.41Z" style="fill:#b8e8ce"/><path d="M414,210.93s-25.42-45,9.69-78l15.61-.71S404.64,169,414,210.93Z" style="fill:#b8e8ce"/><path d="M412.91,211.76s-29.08-16.31-75.55,5.09l8.28-13.25S387.61,185.28,412.91,211.76Z" style="fill:#b8e8ce"/><polygon points="375.63 164.53 359.99 185.87 360.25 186.33 379.07 180.61 398.44 157.21 398.18 156.74 375.63 164.53" style="fill:#3cbb95"/><polygon points="376.02 165.27 361.03 185.71 379.07 180.23 397.63 157.8 376.02 165.27" style="fill:#006661"/><path d="M395.71,174.82l-9.57,7.3-7.82,6-6.26-8.21c-.62-.82,2.76-4.46,7.56-8.12s9.2-6,9.82-5.14Z" style="fill:#3cbb95"/><path d="M400,165.58a13.58,13.58,0,0,0-6.91-4.67,13.82,13.82,0,0,0-4.65-.53c-.12,0-.12.18,0,.18A13.47,13.47,0,0,1,402.69,174a.09.09,0,0,0,.18,0A13.9,13.9,0,0,0,400,165.58Z" style="fill:#ffd556"/><path d="M395.71,174.82c.62.82-2.76,4.45-7.56,8.11s-9.2,6-9.83,5.15c-.16-.22-.05-.63.3-1.19,1-1.56,3.73-4.23,7.26-6.93,3.69-2.81,7.14-4.82,8.82-5.23C395.21,174.61,395.56,174.63,395.71,174.82Z" style="fill:#006661"/><path d="M394.7,174.73c-1,1.56-3.73,4.23-7.26,6.93s-7.13,4.82-8.82,5.23c1-1.56,3.73-4.23,7.26-6.93C389.57,177.15,393,175.14,394.7,174.73Z" style="fill:#fff"/><path d="M648.21,339.31l0,0v0Z" style="fill:#05c19d"/><polygon points="315.93 356.33 636.63 35.35 636.63 47.31 321.95 362.27 315.93 356.33" style="fill:#ffdd02"/><polygon points="636.63 35.35 643.24 40.49 636.63 47.31 636.63 35.35" style="fill:#ffdd02"/><polygon points="630.22 418.35 579.82 460.2 579.41 460.54 571.77 460.54 572.24 460.2 630.22 418.35" style="fill:#53c99f"/><polygon points="658.09 438.89 632.43 460.2 627.47 460.2 658.09 438.89" style="fill:#53c99f"/></svg>