<svg id="Layer_1" data-name="Layer 1" xmlns="http://www.w3.org/2000/svg" viewBox="0 0 919.09 786.49"><defs><style>.cls-1{fill:#006661}.cls-2{fill:#3cbb95}.cls-4{fill:#ffa400}.cls-5,.cls-7,.cls-8,.cls-9{fill:none;stroke-miterlimit:10}.cls-5{stroke:#006661;stroke-width:4.16px}.cls-8{stroke:#ffa200}.cls-7{stroke-width:2.94px}.cls-7,.cls-9{stroke:#53c99f}.cls-8{stroke-width:2.38px}.cls-9{stroke-width:2.08px}.cls-10{fill:#b8e8ce}.cls-14{fill:#ffdd02}.cls-15{fill:#53c99f}</style></defs><path class="cls-1" d="M488 764.93a29.3 29.3 0 0 1-2.65 12.36 31.81 31.81 0 0 1-7.29 10.11 34.39 34.39 0 0 1-10.86 6.8 36.85 36.85 0 0 1-25.44.4 33.17 33.17 0 0 1-10.5-6.05 33 33 0 0 1-10.54 6.05 36.42 36.42 0 0 1-12.21 2.07 35.77 35.77 0 0 1-13.27-2.47 34.39 34.39 0 0 1-10.86-6.8 31.81 31.81 0 0 1-7.29-10.11 29.3 29.3 0 0 1-2.65-12.36v-75.6h22.74v75.6a10.19 10.19 0 0 0 .87 4.17 10.36 10.36 0 0 0 2.42 3.39 11.24 11.24 0 0 0 3.61 2.25 12.4 12.4 0 0 0 8.87 0 11.24 11.24 0 0 0 3.61-2.25 10.51 10.51 0 0 0 2.44-3.39 10.19 10.19 0 0 0 .87-4.17v-75.6h22.73v75.6a10.19 10.19 0 0 0 .87 4.17 10.51 10.51 0 0 0 2.42 3.39 11.24 11.24 0 0 0 3.61 2.25 12.4 12.4 0 0 0 8.87 0 11.24 11.24 0 0 0 3.61-2.25 10.94 10.94 0 0 0 2.46-3.39 9.91 9.91 0 0 0 .91-4.17v-75.6H488ZM538.66 775.85a12.53 12.53 0 0 0 2.53.48c.85.07 1.69.11 2.54.11a22.71 22.71 0 0 0 11.61-3.14 19.85 19.85 0 0 0 7.89-8.52l15.85 14.84a41.23 41.23 0 0 1-6.94 7.16 44 44 0 0 1-18.07 8.74 47.2 47.2 0 0 1-27.18-1.95 42.84 42.84 0 0 1-13.79-8.64 40.41 40.41 0 0 1-12.72-30 42 42 0 0 1 3.41-17.13 39.27 39.27 0 0 1 9.31-13.21 42.47 42.47 0 0 1 13.79-8.49 46.51 46.51 0 0 1 16.84-3 46.14 46.14 0 0 1 20 4.58 44.24 44.24 0 0 1 8.52 5.43 41.19 41.19 0 0 1 7 7.19Zm11.09-41.56a13.46 13.46 0 0 0-3-.66 30 30 0 0 0-3-.15 23 23 0 0 0-8.36 1.51A19.74 19.74 0 0 0 524 746.07a22.65 22.65 0 0 0-1.67 8.89c0 .74 0 1.58.12 2.51a29.37 29.37 0 0 0 1.07 5.61 9.78 9.78 0 0 0 1 2.36ZM675.05 755a41.44 41.44 0 0 1-3.41 17 40.18 40.18 0 0 1-9.27 13.18 41.82 41.82 0 0 1-13.75 8.52 46.79 46.79 0 0 1-16.92 3 45.72 45.72 0 0 1-16.84-3.1 42.84 42.84 0 0 1-13.79-8.64 40.41 40.41 0 0 1-12.72-30v-70.28h21.71v36.91a19.61 19.61 0 0 1 4.24-3.69 26 26 0 0 1 5.39-2.65 37.43 37.43 0 0 1 6-1.59 34 34 0 0 1 6-.56 45.4 45.4 0 0 1 16.92 3.14 42.22 42.22 0 0 1 13.76 8.76 41.56 41.56 0 0 1 9.27 13.25 40.61 40.61 0 0 1 3.41 16.75Zm-21.79 0a21.19 21.19 0 0 0-13.2-19.86 21.69 21.69 0 0 0-8.36-1.62 19.64 19.64 0 0 0-8.36 1.81 22.79 22.79 0 0 0-6.86 4.8 22.32 22.32 0 0 0-4.59 6.86 20.11 20.11 0 0 0-1.67 8 21.47 21.47 0 0 0 1.67 8.49 20.89 20.89 0 0 0 4.59 6.79 21.89 21.89 0 0 0 6.86 4.54 21.88 21.88 0 0 0 16.72 0 21.89 21.89 0 0 0 6.86-4.54 21.31 21.31 0 0 0 4.63-6.79 21 21 0 0 0 1.71-8.48ZM768.89 795.19h-79.57V689.33h22.74V774h56.83Z" transform="translate(-374.45 -143)"/><path class="cls-2" d="M398 928h-22.76V822.16H398ZM438.4 928h-21.63v-79H422l7.13 7.67a38.56 38.56 0 0 1 11.87-6.86 40.24 40.24 0 0 1 13.83-2.4 38.93 38.93 0 0 1 14.66 2.77 38.21 38.21 0 0 1 12 7.6 36 36 0 0 1 8.12 11.29 32.59 32.59 0 0 1 3 13.77V928H471v-45.16a14 14 0 0 0-1.27-5.87 15.21 15.21 0 0 0-3.49-4.83 16.64 16.64 0 0 0-11.41-4.43 17.39 17.39 0 0 0-6.42 1.18 16.33 16.33 0 0 0-5.23 3.25 15.06 15.06 0 0 0-3.49 4.83 13.87 13.87 0 0 0-1.27 5.87ZM529.62 928H508v-79h5.23l7.13 7.67a38.56 38.56 0 0 1 11.85-6.82 40.24 40.24 0 0 1 13.83-2.4 38.93 38.93 0 0 1 14.66 2.77 38.21 38.21 0 0 1 12 7.6 36 36 0 0 1 8.12 11.29 32.59 32.59 0 0 1 3 13.77V928h-21.63v-45.16a14 14 0 0 0-1.26-5.87 15.21 15.21 0 0 0-3.49-4.83 16.64 16.64 0 0 0-11.44-4.43 17.31 17.31 0 0 0-6.42 1.18 16.33 16.33 0 0 0-5.23 3.25 15.06 15.06 0 0 0-3.49 4.83 13.87 13.87 0 0 0-1.27 5.87ZM681.23 887.79a40 40 0 0 1-3.41 16.5 41.17 41.17 0 0 1-9.27 13.21 43.66 43.66 0 0 1-13.75 8.78 45 45 0 0 1-47.55-8.78 40.81 40.81 0 0 1-9.31-13.21 40.12 40.12 0 0 1-3.41-16.5 40.71 40.71 0 0 1 12.72-29.94 43.55 43.55 0 0 1 13.75-8.74 44.61 44.61 0 0 1 16.84-3.18 47.42 47.42 0 0 1 16.92 3 41.1 41.1 0 0 1 13.75 8.49 40.1 40.1 0 0 1 9.27 13.21 41.94 41.94 0 0 1 3.45 17.16Zm-21.79 0a22 22 0 0 0-1.71-8.83 20.88 20.88 0 0 0-4.63-6.79 20.26 20.26 0 0 0-6.86-4.35 23.75 23.75 0 0 0-16.72 0 19.8 19.8 0 0 0-6.82 4.35 20.68 20.68 0 0 0-4.55 6.79 22.56 22.56 0 0 0-1.67 8.83 21.47 21.47 0 0 0 1.67 8.49 21.31 21.31 0 0 0 19.73 13 22.58 22.58 0 0 0 8.36-1.55 21.08 21.08 0 0 0 6.86-4.36 20.26 20.26 0 0 0 4.63-6.79 22 22 0 0 0 1.71-8.79ZM714.83 928l-32.33-79h24.65l18.54 49.31L744.16 849h24.73l-32.34 79ZM856.86 928h-5.24l-8.4-10.85a70.17 70.17 0 0 1-6.53 4.83 48.73 48.73 0 0 1-7.26 3.91 45.56 45.56 0 0 1-7.8 2.62 34.76 34.76 0 0 1-8.13 1 49.89 49.89 0 0 1-16.84-2.8 40.57 40.57 0 0 1-13.79-8.16 38.18 38.18 0 0 1-9.31-13.1 43.47 43.47 0 0 1-3.41-17.64 41.53 41.53 0 0 1 3.41-16.95 40.39 40.39 0 0 1 9.31-13.25 42.62 42.62 0 0 1 13.79-8.6 46.15 46.15 0 0 1 16.84-3.06 35.28 35.28 0 0 1 8.17 1 44.42 44.42 0 0 1 7.84 2.66 49.42 49.42 0 0 1 7.25 4 59.26 59.26 0 0 1 6.46 5l8.4-9.37h5.24Zm-21.8-40.23a19.77 19.77 0 0 0-1.7-8 22.91 22.91 0 0 0-11.49-11.67 19.87 19.87 0 0 0-8.37-1.81 24.54 24.54 0 0 0-8.36 1.41 18.79 18.79 0 0 0-11.37 10.89 26.27 26.27 0 0 0 0 18.38 18.87 18.87 0 0 0 11.37 10.89 24.78 24.78 0 0 0 8.36 1.4 19.72 19.72 0 0 0 8.37-1.81 22.94 22.94 0 0 0 11.49-11.66 19.84 19.84 0 0 0 1.7-8ZM915.9 928a39.27 39.27 0 0 1-14.74-2.77 38.8 38.8 0 0 1-12.09-7.6 35.86 35.86 0 0 1-8.16-11.26 32.32 32.32 0 0 1-3-13.73v-23.46H867.4v-20.07h10.54v-31.6h21.55v31.6h32.81v20.07h-32.81v23.48a14.17 14.17 0 0 0 1.27 5.94 15.25 15.25 0 0 0 3.49 4.84 17.16 17.16 0 0 0 11.65 4.5h16.4V928ZM970 827.48a12.23 12.23 0 0 1-1.15 5.24 13.51 13.51 0 0 1-3.13 4.24 15.45 15.45 0 0 1-16 2.88 14.71 14.71 0 0 1-4.6-2.88 13.87 13.87 0 0 1-3.09-4.24 12.44 12.44 0 0 1 0-10.45 13.8 13.8 0 0 1 3.07-4.27 15.38 15.38 0 0 1 15.9-2.89 15.53 15.53 0 0 1 4.64 2.88 13.45 13.45 0 0 1 3.13 4.28 12.33 12.33 0 0 1 1.23 5.21ZM966.22 928h-21.79v-79h21.79ZM1064.73 887.79a40.11 40.11 0 0 1-3.4 16.5 41.35 41.35 0 0 1-9.28 13.21 43.66 43.66 0 0 1-13.75 8.78 45 45 0 0 1-47.55-8.78 41 41 0 0 1-9.31-13.21 40.12 40.12 0 0 1-3.41-16.5 40.71 40.71 0 0 1 12.72-29.94 43.55 43.55 0 0 1 13.79-8.74 44.61 44.61 0 0 1 16.84-3.18 47.34 47.34 0 0 1 16.92 3 41.1 41.1 0 0 1 13.75 8.49 40.28 40.28 0 0 1 9.28 13.21 42.1 42.1 0 0 1 3.4 17.16Zm-21.79 0a22.21 22.21 0 0 0-1.7-8.83 21.06 21.06 0 0 0-4.64-6.79 20.26 20.26 0 0 0-6.86-4.35 23.75 23.75 0 0 0-16.72 0 19.76 19.76 0 0 0-6.81 4.35 20.7 20.7 0 0 0-4.56 6.79 22.56 22.56 0 0 0-1.66 8.83 21.46 21.46 0 0 0 1.66 8.49 21.31 21.31 0 0 0 19.73 13 22.58 22.58 0 0 0 8.36-1.55 21.08 21.08 0 0 0 6.86-4.36 20.43 20.43 0 0 0 4.64-6.79 22.21 22.21 0 0 0 1.7-8.79ZM1098.34 928h-21.64v-79h5.23l7.14 7.67a38.39 38.39 0 0 1 11.84-6.82 40.28 40.28 0 0 1 13.83-2.4 38.94 38.94 0 0 1 14.67 2.77 38.16 38.16 0 0 1 12 7.6 36 36 0 0 1 8.13 11.29 32.59 32.59 0 0 1 3 13.77V928h-21.64v-45.16a13.87 13.87 0 0 0-1.27-5.87 15.18 15.18 0 0 0-3.48-4.83 16.69 16.69 0 0 0-11.42-4.43 17.39 17.39 0 0 0-6.42 1.18 16.44 16.44 0 0 0-5.23 3.25 15 15 0 0 0-3.48 4.83 13.87 13.87 0 0 0-1.27 5.87ZM1214.52 928h-49.45v-20.06h49.45a5.38 5.38 0 0 0 3.81-1.48 4.67 4.67 0 0 0 1.58-3.54 2.73 2.73 0 0 0-1.58-2.81 9.92 9.92 0 0 0-3.81-.66H1192a27.76 27.76 0 0 1-10.54-2 27.24 27.24 0 0 1-8.55-5.43 25.4 25.4 0 0 1-5.75-8 24 24 0 0 1 0-19.63 24.94 24.94 0 0 1 5.75-8 27.22 27.22 0 0 1 8.55-5.35 28.33 28.33 0 0 1 10.54-1.95h43.83v20.07H1192a5.42 5.42 0 0 0-3.8 1.48 4.67 4.67 0 0 0-1.58 3.54 4.86 4.86 0 0 0 1.58 3.66 5.32 5.32 0 0 0 3.8 1.51h22.51a31.07 31.07 0 0 1 10.46 1.74 26.63 26.63 0 0 1 8.56 4.83 23 23 0 0 1 5.79 7.46 21.38 21.38 0 0 1 2.14 9.52 22.77 22.77 0 0 1-2.14 9.78 26.24 26.24 0 0 1-5.79 8 26.66 26.66 0 0 1-8.56 5.39 27.87 27.87 0 0 1-10.45 1.93Z" transform="translate(-374.45 -143)"/><path d="M1293.54 143 1266 259.6l-19.4-32.76L783.56 689.9a287.45 287.45 0 0 1-36.92-36.9l37.1-37.1 329-329 96.93-96.94-32.76-19.39Z" transform="translate(-374.45 -143)" style="fill:#ffb300"/><path class="cls-4" d="M746.64 652.94a285.13 285.13 0 0 1-66.24-183.15c0-158.13 128.18-286.32 286.32-286.32a285 285 0 0 1 168 54.49l-37.49 37.48a233 233 0 0 0-130.55-39.76c-129.3 0-234.11 104.81-234.11 234.11a233.12 233.12 0 0 0 51.13 146.05ZM1253 469.79a285.14 285.14 0 0 1-28 123.57l-.1.2c-1 2.12-2.07 4.24-3.14 6.33l-.19.37c-10.87 20.66-48 82.82-119.18 121.65l-2.3 1.23a285.81 285.81 0 0 1-28 12.89l-3.23 1.24c-51.85 19.51-118 25.64-200.38 1.53 0 0 206-6.5 293.84-140.5.53-.78 1-1.57 1.53-2.36s1-1.59 1.51-2.39a234.25 234.25 0 0 0-3.24-252.64l37.54-37.55A285 285 0 0 1 1253 469.79Z" transform="translate(-374.45 -143)"/><path class="cls-1" d="M1246.69 595.4v158.43h-29.1l20.59-28.29-34.06 28.29h-44.38l41.45-55.55-66.9 55.55h-46a314.69 314.69 0 0 0 158.4-158.43Z" transform="translate(-374.45 -143)"/><path class="cls-5" d="m625.44 363.65 59.92 59.91M639.84 349.26 681.58 391h47.69l25.72 25.72M655.3 333.8l29.96 29.95h32.1M671.35 317.75l23 23"/><circle cx="693.82" cy="432.03" r="10.65" style="stroke-width:2.94px;stroke:#ffa200;fill:none;stroke-miterlimit:10"/><circle class="cls-7" cx="762.66" cy="424.11" r="10.65"/><circle class="cls-8" cx="726.18" cy="363.73" r="8.61"/><circle class="cls-9" cx="700" cy="346.4" r="7.53"/><path class="cls-5" d="m611.13 377.97 41.74 41.74v47.69l25.72 25.72M595.66 393.43l29.96 29.96v32.1M579.62 409.48l23 23"/><circle class="cls-7" cx="685.98" cy="500.79" r="10.65"/><circle class="cls-8" cx="625.6" cy="464.31" r="8.61"/><circle class="cls-9" cx="608.27" cy="438.13" r="7.53"/><path class="cls-1" d="M928.87 439.14a4.79 4.79 0 0 1-.7.58l-114.76 78.57a4.92 4.92 0 0 1-5.56-8.12l114-78.05 80.88-118.95a4.93 4.93 0 0 1 8.15 5.54l-81.42 119.72a5.05 5.05 0 0 1-.59.71Z" transform="translate(-374.45 -143)"/><path class="cls-10" d="M919.09 429s-20.27-73.1 54.06-108.11l22.11-2.46S936.9 375.54 919.09 429Z" transform="translate(-374.45 -143)"/><path class="cls-10" d="M919.16 428.91s-73.09-20.27-108.11 54l-2.45 22.12s57.12-58.31 110.56-76.12ZM914.17 423S880.43 363.18 927 319.4l20.71-.94s-45.94 48.8-33.54 104.54Z" transform="translate(-374.45 -143)"/><path class="cls-10" d="M912.76 424.07s-38.61-21.65-100.28 6.75l11-17.58s55.69-24.32 89.28 10.83Z" transform="translate(-374.45 -143)"/><path class="cls-2" d="m488.83 218.38-20.76 28.32.34.62 24.98-7.6 25.71-31.06-.34-.62-29.93 10.34z"/><path class="cls-1" d="m489.34 219.37-19.89 27.13 23.94-7.28 24.63-29.77-28.68 9.92z"/><path class="cls-2" d="m889.92 375-12.7 9.69-10.37 7.9-8.31-10.89c-.83-1.09 3.66-5.91 10-10.77s12.21-7.92 13-6.83Z" transform="translate(-374.45 -143)"/><path d="M895.57 362.77a18.27 18.27 0 0 0-15.35-6.9c-.15 0-.16.24 0 .24a17.89 17.89 0 0 1 19 17.88.12.12 0 0 0 .23 0 18.4 18.4 0 0 0-3.88-11.22Z" transform="translate(-374.45 -143)" style="fill:#ffd556"/><path class="cls-1" d="M889.92 375c.83 1.09-3.66 5.91-10 10.77s-12.21 7.91-13 6.82c-.22-.29-.07-.83.39-1.57 1.28-2.07 5-5.62 9.64-9.2 4.89-3.73 9.47-6.4 11.71-6.94.6-.12 1.06-.09 1.26.12Z" transform="translate(-374.45 -143)"/><path d="M888.59 374.92c-1.28 2.06-5 5.62-9.64 9.2-4.89 3.73-9.47 6.4-11.71 6.94 1.28-2.07 5-5.62 9.64-9.2 4.89-3.73 9.47-6.4 11.71-6.94Z" transform="translate(-374.45 -143)" style="fill:#fff"/><path d="M1225.06 593.36Z" transform="translate(-374.45 -143)" style="fill:#05c19d"/><path class="cls-14" d="M409.58 472.95 835.25 46.92V62.8L417.57 480.84l-7.99-7.89zM835.25 46.92l8.77 6.82-8.77 9.06V46.92z"/><path class="cls-15" d="m826.74 555.28-66.89 55.55-.55.45h-10.14l.63-.45 76.95-55.55zM863.74 582.54l-34.06 28.29h-6.59l40.65-28.29z"/></svg>