<svg width="1440" height="639" viewBox="0 0 1440 639" fill="none" xmlns="http://www.w3.org/2000/svg">
<path d="M206.83 9.90985C55.3296 -13.5901 -289.17 467.91 -388.17 585.91C-415.004 625.243 -440.27 710.51 -326.67 736.91C-184.67 769.91 -34.1704 802.91 159.33 736.91C352.83 670.91 457 838 731 838C1005 838 1230.83 647.41 1273.33 736.91C1330.48 857.267 1528.33 968.41 1769.33 736.91C2010.33 505.41 1622.83 71.4099 1424.83 9.90985C1226.83 -51.5901 1263.83 194.41 1112.83 165.91C961.83 137.41 909.83 71.4098 716.33 137.41C522.83 203.41 358.33 33.4099 206.83 9.90985Z" fill="#006661"/>
</svg>
