<svg width="64" height="64" viewBox="0 0 64 64" fill="none" xmlns="http://www.w3.org/2000/svg">
<path d="M26.6665 34.6867C27.8117 36.192 29.2728 37.4375 30.9506 38.3387C32.6285 39.24 34.4839 39.7759 36.3909 39.9102C38.298 40.0445 40.2121 39.774 42.0034 39.117C43.7948 38.46 45.4215 37.4319 46.7732 36.1025L54.7732 28.2371C57.202 25.7647 58.5459 22.4534 58.5155 19.0162C58.4851 15.5791 57.0829 12.2912 54.6108 9.86068C52.1387 7.43017 48.7945 6.05151 45.2985 6.02164C41.8026 5.99178 38.4345 7.31309 35.9198 9.701L31.3332 14.1843" stroke="#3CBB95" stroke-width="3" stroke-linecap="round" stroke-linejoin="round"/>
<path d="M37.3334 29.4431C36.1882 27.9378 34.7271 26.6923 33.0492 25.7911C31.3714 24.8898 29.516 24.3539 27.609 24.2196C25.7019 24.0853 23.7878 24.3558 21.9964 25.0128C20.2051 25.6698 18.5784 26.6979 17.2267 28.0273L9.22671 35.8927C6.79794 38.3651 5.45401 41.6764 5.48439 45.1136C5.51477 48.5507 6.91702 51.8386 9.38913 54.2691C11.8612 56.6996 15.2054 58.0783 18.7014 58.1081C22.1973 58.138 25.5653 56.8167 28.08 54.4288L32.64 49.9455" stroke="#3CBB95" stroke-width="3" stroke-linecap="round" stroke-linejoin="round"/>
</svg>
