<svg width="64" height="64" viewBox="0 0 64 64" fill="none" xmlns="http://www.w3.org/2000/svg">
<path d="M42.6669 42.6026L50.6668 21.6282L58.6694 42.6026C56.3609 44.3042 53.5534 45.224 50.6681 45.224C47.7829 45.224 44.9754 44.3042 42.6669 42.6026Z" stroke="#3CBB95" stroke-width="2" stroke-linecap="round" stroke-linejoin="round"/>
<path d="M5.33337 42.6026L13.3334 21.6282L21.3361 42.6026C19.0275 44.3042 16.22 45.224 13.3347 45.224C10.4494 45.224 7.64191 44.3042 5.33337 42.6026V42.6026Z" stroke="#3CBB95" stroke-width="2" stroke-linecap="round" stroke-linejoin="round"/>
<path d="M18.6666 55.7115H45.3333" stroke="#3CBB95" stroke-width="2" stroke-linecap="round" stroke-linejoin="round"/>
<path d="M32 8.51923V55.7115" stroke="#3CBB95" stroke-width="2" stroke-linecap="round" stroke-linejoin="round"/>
<path d="M8 19.0064H13.3333C18.6667 19.0064 26.6667 16.3846 32 13.7628C37.3333 16.3846 45.3333 19.0064 50.6667 19.0064H56" stroke="#3CBB95" stroke-width="2" stroke-linecap="round" stroke-linejoin="round"/>
</svg>
