<svg width="64" height="64" viewBox="0 0 64 64" fill="none" xmlns="http://www.w3.org/2000/svg">
<path d="M37.3334 19.242H42.6667C44.0812 19.242 45.4378 19.7944 46.4379 20.7778C47.4381 21.7612 48 23.0949 48 24.4856V40.2164C48 41.6071 47.4381 42.9408 46.4379 43.9241C45.4378 44.9075 44.0812 45.46 42.6667 45.46H34.6667" stroke="#3CBB95" stroke-width="3" stroke-linecap="round" stroke-linejoin="round"/>
<path d="M18.6666 19.242H10.6666C9.25209 19.242 7.89554 19.7944 6.89535 20.7778C5.89515 21.7612 5.33325 23.0949 5.33325 24.4856V40.2164C5.33325 41.6071 5.89515 42.9408 6.89535 43.9241C7.89554 44.9075 9.25209 45.46 10.6666 45.46H15.9999" stroke="#3CBB95" stroke-width="3" stroke-linecap="round" stroke-linejoin="round"/>
<path d="M29.3332 19.242L21.3333 32.351H31.9999L23.9999 45.46" stroke="#3CBB95" stroke-width="3" stroke-linecap="round" stroke-linejoin="round"/>
<path d="M58.6667 29.7292V34.9728" stroke="#3CBB95" stroke-width="3" stroke-linecap="round" stroke-linejoin="round"/>
</svg>
