<svg xmlns="http://www.w3.org/2000/svg" id="Layer_1" data-name="Layer 1" viewBox="0 0 898.43 864.44"><defs><style>.cls-1{fill:none;stroke:#3cbb95;stroke-miterlimit:10;stroke-width:20px}</style></defs><title>Blog and article</title><g id="BLOG"><polygon points="652.5 240.24 652.5 23.76 873.9 240.24 652.5 240.24" class="cls-1"/><path d="M687,525.35V913.47a20.37,20.37,0,0,0,20.6,20.14h581.82A20.37,20.37,0,0,0,1310,913.47V319.41l-221.4-216.48h-381A20.37,20.37,0,0,0,687,123.07V267.49" class="cls-1" transform="translate(-436.14 -79.17)"/><line x1="552.12" x2="339.15" y1="714.27" y2="714.27" class="cls-1"/><line x1="785.64" x2="671.54" y1="714.27" y2="714.27" class="cls-1"/><line x1="420.6" x2="339.15" y1="622.54" y2="622.54" class="cls-1"/><line x1="785.64" x2="623.08" y1="622.54" y2="622.54" class="cls-1"/><line x1="342.38" x2="335.92" y1="530.82" y2="530.82" class="cls-1"/><line x1="785.64" x2="578.09" y1="530.82" y2="530.82" class="cls-1"/><line x1="785.64" x2="486.37" y1="439.1" y2="439.1" class="cls-1"/><line x1="785.64" x2="408.49" y1="347.38" y2="347.38" class="cls-1"/><line x1="600.58" x2="339.15" y1="255.66" y2="255.66" class="cls-1"/><line x1="590.2" x2="339.15" y1="163.94" y2="163.94" class="cls-1"/><polygon points="555.99 557.3 634.67 721.08 475.52 633.4 14.14 145.56 94.61 69.45 555.99 557.3" class="cls-1"/><line x1="90.24" x2="169.45" y1="226.03" y2="151.11" class="cls-1"/><line x1="121.16" x2="200.37" y1="258.72" y2="183.8" class="cls-1"/><polyline points="475.52 633.4 497.92 576.49 555.99 557.3" class="cls-1"/><line x1="497.92" x2="162.58" y1="576.49" y2="221.92" class="cls-1"/><line x1="592.05" x2="607.13" y1="691.13" y2="676.86" class="cls-1"/></g></svg>