<svg id="Layer_1" data-name="Layer 1" xmlns="http://www.w3.org/2000/svg" viewBox="0 0 739.01 909.02"><defs><style>.cls-1{fill:none;stroke:#3cbb95;stroke-miterlimit:10;stroke-width:20px;}</style></defs><title>course content</title><g id="Course"><polygon class="cls-1" points="532.4 201.79 532.4 23.76 714.48 201.79 532.4 201.79"/><path class="cls-1" d="M1099.88,56.2H786.54a16.75,16.75,0,0,0-16.93,16.56v650a16.75,16.75,0,0,0,16.93,16.56H1265A16.75,16.75,0,0,0,1282,722.77V234.23Z" transform="translate(-567.48 -32.44)"/><path class="cls-1" d="M769.61,120.24H722.5a16.76,16.76,0,0,0-16.94,16.57v650a16.76,16.76,0,0,0,16.94,16.57H1201a16.76,16.76,0,0,0,16.94-16.57V739.33" transform="translate(-567.48 -32.44)"/><path class="cls-1" d="M705.56,184.29h-47.1a16.75,16.75,0,0,0-16.94,16.56v650a16.75,16.75,0,0,0,16.94,16.56h478.47a16.76,16.76,0,0,0,16.94-16.56V803.38" transform="translate(-567.48 -32.44)"/><path class="cls-1" d="M641.52,248.33H594.41a16.75,16.75,0,0,0-16.93,16.56v650a16.75,16.75,0,0,0,16.93,16.56h478.48a16.75,16.75,0,0,0,16.93-16.56V867.42" transform="translate(-567.48 -32.44)"/><line class="cls-1" x1="641.9" y1="365.33" x2="274.71" y2="365.33"/><line class="cls-1" x1="641.9" y1="289.9" x2="274.71" y2="289.9"/><rect class="cls-1" x="271.42" y="412.79" width="65.99" height="40.25"/><rect class="cls-1" x="271.42" y="498.86" width="65.99" height="40.25"/><rect class="cls-1" x="271.42" y="584.94" width="65.99" height="40.25"/><rect class="cls-1" x="388.97" y="412.79" width="253.38" height="40.25"/><rect class="cls-1" x="388.97" y="498.86" width="253.38" height="40.25"/><rect class="cls-1" x="388.97" y="584.94" width="253.38" height="40.25"/><line class="cls-1" x1="493.94" y1="214.87" x2="280.34" y2="214.87"/><line class="cls-1" x1="477.97" y1="151.17" x2="272.84" y2="151.17"/></g></svg>