<svg xmlns="http://www.w3.org/2000/svg" id="Layer_1" data-name="Layer 1" viewBox="0 0 900.95 864.39"><defs><style>.cls-1,.cls-2,.cls-3{fill:none;stroke:#3cbb95;stroke-miterlimit:10}.cls-1{stroke-width:9px}.cls-2,.cls-3{stroke-width:20px}.cls-2{fill-rule:evenodd}</style></defs><title>powerpoint</title><polyline points="232.65 244.47 199.08 201.44 165.51 244.47" class="cls-1"/><polyline points="694.04 598.46 735.56 572.11 694.04 545.75" class="cls-1"/><polygon points="645.95 237.92 591.36 290.06 582.2 278.24 572.94 266.28 645.95 237.92" class="cls-1"/><rect width="65.26" height="143.96" x="317.92" y="401.91" class="cls-1"/><rect width="50.26" height="88.32" x="239.03" y="457.54" class="cls-1"/><rect width="61.58" height="159.17" x="614.67" y="386.7" class="cls-1"/><path d="M1068,900.31,914.57,818.48m0-127.28V818.48L762.21,900.31" class="cls-2" transform="translate(-466.69 -44.74)"/><line x1="838.99" x2="62.32" y1="137.28" y2="137.28" class="cls-3"/><polyline points="198.92 201.46 198.92 571.99 735.27 571.99" class="cls-1"/><polyline points="199.95 402.94 339.2 316.41 444.4 363.86 582.2 278.24" class="cls-1"/><rect width="73.5" height="107.86" x="420.03" y="438.01" class="cls-1"/><rect width="60.87" height="191.61" x="522.14" y="354.26" class="cls-1"/><path d="M1347.14,102.16c-10.51-3.62-20.45-10.55-31-10.55h-798c-10,0-20.45,6.93-27.62,10.55-10.51,6.92-13.84,17.18-13.84,27.72v13.87c0,10.54,3.33,20.8,13.84,27.71,7.17,6.95,17.66,10.56,27.62,10.56h10.52V689.47l385.9,1.73,391.11-1.73V182h10.51c10.5,0,24.34-3.61,31-10.56,3.86-6.91,10.5-17.17,10.5-27.71V129.88Q1352.39,116,1347.14,102.16Z" class="cls-2" transform="translate(-466.69 -44.74)"/><path d="M951.82,83.53a28.39,28.39,0,0,1-1.16,8.08H895.6a28.39,28.39,0,0,1-1.16-8.08,28.69,28.69,0,1,1,57.38,0Z" class="cls-2" transform="translate(-466.69 -44.74)"/></svg>