<svg xmlns="http://www.w3.org/2000/svg" id="Layer_1" data-name="Layer 1" viewBox="0 0 855.27 825.11"><defs><style>.cls-1{fill:none;stroke:#3cbb95;stroke-miterlimit:10;stroke-width:20px}</style></defs><title>Rebranding</title><g id="re_brand" data-name="re brand"><path d="M861.4,456.75C795.78,359.41,630.26,189,505.53,100.88c-34.31-24.25-78.39,19.83-54.14,54.14C539.52,279.75,709.92,445.27,807.26,510.9Z" class="cls-1" transform="translate(-434.41 -83.91)"/><line x1="303.12" x2="226.33" y1="227.32" y2="304.11" class="cls-1"/><path d="M771.15,492.82H1027a0,0,0,0,1,0,0V599.09a5.25,5.25,0,0,1-5.25,5.25H776.4a5.25,5.25,0,0,1-5.25-5.25V492.82a0,0,0,0,1,0,0Z" class="cls-1" transform="translate(1488.33 216.83) rotate(135)"/><path d="M979.19,791.64l190.48-190.48h0a215.05,215.05,0,0,1-91.3-54.22L1029,497.55,848.05,678.47l47,47C921.83,752.24,954.59,781.62,979.19,791.64Z" class="cls-1" transform="translate(-434.41 -83.91)"/><line x1="566.72" x2="679.59" y1="444.58" y2="557.45" class="cls-1"/><line x1="532.7" x2="645.57" y1="478.6" y2="591.47" class="cls-1"/><line x1="498.68" x2="611.56" y1="512.61" y2="625.49" class="cls-1"/><line x1="467.76" x2="580.63" y1="543.54" y2="656.41" class="cls-1"/><line x1="438.38" x2="551.25" y1="572.92" y2="685.79" class="cls-1"/><line x1="639.39" x2="699.69" y1="517.25" y2="552.82" class="cls-1"/><polygon points="637.44 278.86 637.44 89.85 830.74 278.86 637.44 278.86" class="cls-1"/><path d="M721.21,470.32V881.43a17.8,17.8,0,0,0,18,17.58h508a17.79,17.79,0,0,0,18-17.58V362.76l-193.3-189H739.2a17.79,17.79,0,0,0-18,17.58v66.87" class="cls-1" transform="translate(-434.41 -83.91)"/></g></svg>