<svg id="Layer_1" data-name="Layer 1" xmlns="http://www.w3.org/2000/svg" viewBox="0 0 743.08 824.25"><defs><style>.cls-1{fill:none;stroke:#3cbb95;stroke-miterlimit:10;stroke-width:20px;}</style></defs><title>Script write 2</title><g id="Script"><polygon class="cls-1" points="392.18 229.77 392.18 23.76 602.87 229.77 392.18 229.77"/><path class="cls-1" d="M1135,399.9V310.38l-210.68-206H561.77a19.38,19.38,0,0,0-19.59,19.16V875.7a19.38,19.38,0,0,0,19.59,19.17h553.67A19.38,19.38,0,0,0,1135,875.7V787.38" transform="translate(-532.18 -80.61)"/><line class="cls-1" x1="399.1" y1="680.86" x2="93.99" y2="680.86"/><line class="cls-1" x1="327.95" y1="593.58" x2="93.99" y2="593.58"/><line class="cls-1" x1="314.88" y1="506.29" x2="93.99" y2="506.29"/><line class="cls-1" x1="337.05" y1="419.01" x2="93.99" y2="419.01"/><line class="cls-1" x1="419.58" y1="331.73" x2="93.99" y2="331.73"/><line class="cls-1" x1="342.77" y1="244.44" x2="93.99" y2="244.44"/><line class="cls-1" x1="332.89" y1="157.16" x2="93.99" y2="157.16"/><circle class="cls-1" cx="1056.1" cy="593.64" r="209.15" transform="translate(-642.62 840.04) rotate(-45)"/><path class="cls-1" d="M1137.52,464.9h-21.89a7.79,7.79,0,0,0-7.79,7.79V585.74L973.78,461.94a4.63,4.63,0,0,0-7.77,3.4V720.82a4.63,4.63,0,0,0,7.77,3.41l134.06-123.81V714.65a7.8,7.8,0,0,0,7.79,7.8h21.89a7.8,7.8,0,0,0,7.8-7.8v-242A7.8,7.8,0,0,0,1137.52,464.9Z" transform="translate(-532.18 -80.61)"/></g></svg>