<svg xmlns="http://www.w3.org/2000/svg" id="Layer_1" data-name="Layer 1" viewBox="0 0 743.08 824.25"><defs><style>.cls-1{fill:none;stroke:#3cbb95;stroke-miterlimit:10;stroke-width:20px}</style></defs><title>Script write 2</title><g id="Script"><polygon points="392.18 229.77 392.18 23.76 602.87 229.77 392.18 229.77" class="cls-1"/><path d="M1135,399.9V310.38l-210.68-206H561.77a19.38,19.38,0,0,0-19.59,19.16V875.7a19.38,19.38,0,0,0,19.59,19.17h553.67A19.38,19.38,0,0,0,1135,875.7V787.38" class="cls-1" transform="translate(-532.18 -80.61)"/><line x1="399.1" x2="93.99" y1="680.86" y2="680.86" class="cls-1"/><line x1="327.95" x2="93.99" y1="593.58" y2="593.58" class="cls-1"/><line x1="314.88" x2="93.99" y1="506.29" y2="506.29" class="cls-1"/><line x1="337.05" x2="93.99" y1="419.01" y2="419.01" class="cls-1"/><line x1="419.58" x2="93.99" y1="331.73" y2="331.73" class="cls-1"/><line x1="342.77" x2="93.99" y1="244.44" y2="244.44" class="cls-1"/><line x1="332.89" x2="93.99" y1="157.16" y2="157.16" class="cls-1"/><circle cx="1056.1" cy="593.64" r="209.15" class="cls-1" transform="translate(-642.62 840.04) rotate(-45)"/><path d="M1137.52,464.9h-21.89a7.79,7.79,0,0,0-7.79,7.79V585.74L973.78,461.94a4.63,4.63,0,0,0-7.77,3.4V720.82a4.63,4.63,0,0,0,7.77,3.41l134.06-123.81V714.65a7.8,7.8,0,0,0,7.79,7.8h21.89a7.8,7.8,0,0,0,7.8-7.8v-242A7.8,7.8,0,0,0,1137.52,464.9Z" class="cls-1" transform="translate(-532.18 -80.61)"/></g></svg>