<svg id="Layer_1" data-name="Layer 1" xmlns="http://www.w3.org/2000/svg" viewBox="0 0 884.35 811.74"><defs><style>.cls-1{fill:none;stroke:#3cbb95;stroke-miterlimit:10;stroke-width:20px;}</style></defs><title>Technical Writing</title><g id="TECH"><rect class="cls-1" x="982.94" y="779.23" width="59.33" height="59.33" transform="translate(1303.98 -280.27) rotate(90)"/><rect class="cls-1" x="1109.84" y="779.23" width="59.33" height="59.33" transform="translate(1430.88 -407.17) rotate(90)"/><rect class="cls-1" x="1236.73" y="779.23" width="59.33" height="59.33" transform="translate(1557.77 -534.06) rotate(90)"/><path class="cls-1" d="M541.72,778.94H804.1A7.11,7.11,0,0,0,808,777.8l61.94-39.91h507.76m-644-494.63-4.14-3.3a7.11,7.11,0,0,1-1.74-9.1l1-1.81H534.62a7.1,7.1,0,0,0-7.1,7.1v635a7.1,7.1,0,0,0,7.1,7.1h850.14a7.1,7.1,0,0,0,7.11-7.1v-635a7.1,7.1,0,0,0-7.11-7.1H1190.58l1,1.81a7.09,7.09,0,0,1-1.73,9.1l-4.14,3.3" transform="translate(-517.52 -76.56)"/><path class="cls-1" d="M709.34,351.12a7.1,7.1,0,0,1-7.1-7.11v-7.1" transform="translate(-517.52 -76.56)"/><path class="cls-1" d="M1210,351.12a7.11,7.11,0,0,0,7.11-7.11v-7.1" transform="translate(-517.52 -76.56)"/><path class="cls-1" d="M1210,351.12H709.34m24.27-107.86,46.53,37a191.74,191.74,0,0,0-7.74,29.11L708.28,319a7.11,7.11,0,0,0-6,7v10.84m483.51-93.65-46.6,37.05a179.41,179.41,0,0,1,7.81,29l64.13,9.69a7.12,7.12,0,0,1,6,7v10.84m160.52,401H869.89L808,777.8a7.11,7.11,0,0,1-3.85,1.14H541.72" transform="translate(-517.52 -76.56)"/><path class="cls-1" d="M1051.56,351.12a7.11,7.11,0,0,0,7.11-7.11q0-3.58-.26-7.1a99,99,0,0,0-197.46,0q-.26,3.51-.26,7.1a7.11,7.11,0,0,0,7.11,7.11" transform="translate(-517.52 -76.56)"/><path class="cls-1" d="M959.68,245" transform="translate(-517.52 -76.56)"/><path class="cls-1" d="M861,336.91" transform="translate(-517.52 -76.56)"/><path class="cls-1" d="M772.4,309.35" transform="translate(-517.52 -76.56)"/><path class="cls-1" d="M780.14,280.24" transform="translate(-517.52 -76.56)"/><path class="cls-1" d="M733.61,243.26" transform="translate(-517.52 -76.56)"/><path class="cls-1" d="M1191.62,230.86l-1-1.81-16.88-29.34a7.08,7.08,0,0,0-8.76-3.07l-60.37,23.79a194.13,194.13,0,0,0-21.3-21.33L1107,138.75A7.1,7.1,0,0,0,1104,130l-31.12-18a7.11,7.11,0,0,0-9.1,1.73l-40.38,50.69a187.83,187.83,0,0,0-29-7.75l-9.69-64.1a7.1,7.1,0,0,0-7-6H941.76a7.1,7.1,0,0,0-7,6l-9.69,64.1a185.88,185.88,0,0,0-29,7.75l-40.35-50.69a7.14,7.14,0,0,0-9.11-1.73L815.4,130a7.11,7.11,0,0,0-3.06,8.76l23.74,60.35a193.9,193.9,0,0,0-21.27,21.33l-60.37-23.79a7.07,7.07,0,0,0-8.76,3.07l-16.9,29.34-1,1.81" transform="translate(-517.52 -76.56)"/><path class="cls-1" d="M1185.75,243.26" transform="translate(-517.52 -76.56)"/><path class="cls-1" d="M1211.09,319" transform="translate(-517.52 -76.56)"/><path class="cls-1" d="M1058.41,336.91" transform="translate(-517.52 -76.56)"/><line class="cls-1" x1="728.8" y1="359.65" x2="155.11" y2="359.65"/><line class="cls-1" x1="728.8" y1="407.14" x2="155.11" y2="407.14"/><line class="cls-1" x1="728.8" y1="454.64" x2="155.11" y2="454.64"/><line class="cls-1" x1="728.8" y1="502.14" x2="155.11" y2="502.14"/><line class="cls-1" x1="728.8" y1="549.63" x2="155.11" y2="549.63"/></g></svg>