<svg id="Layer_1" data-name="Layer 1" xmlns="http://www.w3.org/2000/svg" viewBox="0 0 649.32 874.21"><defs><style>.cls-1{fill:none;stroke:#3cbb95;stroke-miterlimit:10;stroke-width:20px;}</style></defs><title>Worksheet</title><g id="Worksheet"><path class="cls-1" d="M746.23,154.61H655.42a17.81,17.81,0,0,0-18,17.6V863.14a17.81,17.81,0,0,0,18,17.61H1164a17.82,17.82,0,0,0,18-17.61V343.85L1032.57,197.73" transform="translate(-585.06 -54.6)"/><line class="cls-1" x1="520.51" y1="720.63" x2="249.83" y2="720.63"/><line class="cls-1" x1="520.51" y1="560.27" x2="249.83" y2="560.27"/><line class="cls-1" x1="520.51" y1="399.92" x2="249.83" y2="399.92"/><line class="cls-1" x1="349.66" y1="239.56" x2="249.83" y2="239.56"/><rect class="cls-1" x="128.8" y="678.27" width="84.72" height="84.72"/><polyline class="cls-1" points="213.52 362.86 213.52 442.28 128.8 442.28 128.8 399.16"/><line class="cls-1" x1="160.22" y1="357.56" x2="209.63" y2="357.56"/><polyline class="cls-1" points="129.95 355.53 170.4 418.45 224.55 334.4"/><polyline class="cls-1" points="213.52 522.83 213.52 602.25 128.8 602.25 128.8 559.14"/><line class="cls-1" x1="160.22" y1="517.54" x2="209.63" y2="517.54"/><polyline class="cls-1" points="129.95 515.5 170.4 578.43 224.55 494.38"/><polyline class="cls-1" points="213.52 200.61 213.52 280.03 128.8 280.03 128.8 236.92"/><line class="cls-1" x1="160.22" y1="195.32" x2="209.63" y2="195.32"/><polyline class="cls-1" points="129.95 193.28 170.4 256.2 224.55 172.15"/><polyline class="cls-1" points="488.14 68.48 639.32 68.48 639.32 864.21 10 864.21 10 68.48 161.18 68.48"/><rect class="cls-1" x="161.18" y="10" width="326.96" height="133.12"/><polyline class="cls-1" points="450.55 143.13 599.99 289.25 406.45 289.25 406.45 143.13"/></g></svg>