<svg xmlns="http://www.w3.org/2000/svg" width="48" height="49" fill="none" viewBox="0 0 48 49"><path stroke="#FFB300" stroke-linecap="round" stroke-linejoin="round" stroke-width="2" d="M45.3 29.4332L24 44.9132L2.70004 29.4332C2.41449 29.2232 2.20268 28.9283 2.09491 28.5906C1.98714 28.2529 1.98894 27.8898 2.10004 27.5532L4.54004 19.9932L9.42004 4.97324C9.46738 4.85086 9.54272 4.74126 9.64004 4.65324C9.79852 4.50849 10.0054 4.42822 10.22 4.42822C10.4347 4.42822 10.6416 4.50849 10.8 4.65324C10.9028 4.75257 10.9785 4.87648 11.02 5.01324L15.9 19.9932H32.1L36.98 4.97324C37.0274 4.85086 37.1027 4.74126 37.2 4.65324C37.3585 4.50849 37.5654 4.42822 37.78 4.42822C37.9947 4.42822 38.2016 4.50849 38.36 4.65324C38.4628 4.75257 38.5385 4.87648 38.58 5.01324L43.46 20.0332L46 27.5532C46.1011 27.9002 46.0876 28.2705 45.9615 28.6092C45.8354 28.9479 45.6034 29.2368 45.3 29.4332V29.4332Z"/></svg>