<svg width="48" height="48" viewBox="0 0 48 48" fill="none" xmlns="http://www.w3.org/2000/svg">
<path d="M24 6.00001C22.782 5.9984 21.5836 6.3058 20.5167 6.89343C19.4499 7.48106 18.5496 8.32972 17.9 9.36001C17.3108 9.21784 16.706 9.15064 16.1 9.16001C14.2763 9.22774 12.5464 9.98549 11.26 11.28C10.4157 12.1408 9.80112 13.1999 9.47264 14.3601C9.14417 15.5203 9.11231 16.7443 9.38 17.92C8.34887 18.5654 7.49807 19.4615 6.90701 20.5247C6.31595 21.5879 6.0039 22.7836 6 24C6.00052 25.2198 6.31096 26.4195 6.90217 27.4865C7.49339 28.5535 8.346 29.4528 9.38 30.1C9.11484 31.2773 9.14988 32.5024 9.48188 33.6627C9.81388 34.8229 10.4322 35.8811 11.28 36.74C12.1429 37.6011 13.2103 38.2289 14.3822 38.5647C15.5541 38.9006 16.792 38.9333 17.98 38.66C18.6247 39.6752 19.5134 40.5127 20.5649 41.0961C21.6165 41.6796 22.7975 41.9903 24 42C25.2127 42.0004 26.4059 41.6944 27.4688 41.1105C28.5317 40.5266 29.4299 39.6837 30.08 38.66C31.264 38.9253 32.4959 38.8871 33.6612 38.5488C34.8265 38.2106 35.8874 37.5834 36.7454 36.7254C37.6034 35.8674 38.2306 34.8065 38.5688 33.6412C38.907 32.4759 38.9453 31.244 38.68 30.06C39.6971 29.4093 40.5343 28.5133 41.1145 27.4543C41.6946 26.3953 41.9991 25.2075 42 24C42.0004 22.7873 41.6944 21.5941 41.1105 20.5312C40.5266 19.4683 39.6837 18.5702 38.66 17.92V17.92C38.9253 16.736 38.887 15.5041 38.5488 14.3388C38.2106 13.1735 37.5834 12.1126 36.7254 11.2546C35.8674 10.3967 34.8065 9.76941 33.6412 9.43119C32.4759 9.09296 31.244 9.05471 30.06 9.32001C29.4093 8.30286 28.5133 7.4657 27.4543 6.88554C26.3953 6.30538 25.2075 6.00086 24 6.00001V6.00001Z" stroke="#FFB300" stroke-width="2" stroke-linecap="round" stroke-linejoin="round"/>
<path d="M30 20L22 28" stroke="#FFB300" stroke-width="2" stroke-linecap="round" stroke-linejoin="round"/>
<path d="M18 24L22 28" stroke="#FFB300" stroke-width="2" stroke-linecap="round" stroke-linejoin="round"/>
</svg>
